<?xml version="1.0" encoding="utf-8"?>
<!-- Generator: Adobe Illustrator 23.0.5, SVG Export Plug-In . SVG Version: 6.00 Build 0)  -->
<svg version="1.1" id="Capa_1" xmlns="http://www.w3.org/2000/svg" xmlns:xlink="http://www.w3.org/1999/xlink" x="0px" y="0px"
	 viewBox="0 0 40 40" style="enable-background:new 0 0 40 40;" xml:space="preserve">
<style type="text/css">
	.st0{fill-rule:evenodd;clip-rule:evenodd;}
	.st1{fill:#FFFFFF;}
</style>
<path class="st0" d="M17.5,1.7c12-1.5,22.3,8.6,20.8,20.8c-1.1,8.1-7.7,14.9-15.8,15.8c-12,1.5-22.3-8.6-20.8-20.8
	C2.8,9.4,9.4,2.8,17.5,1.7z"/>
<path class="st1" d="M14.9,37.4v-6c-0.9,0.2-1.5,0.2-1.8,0.2c-1.8,0-3.2-0.9-4-2.6c-0.3-0.6-0.6-1.2-0.9-1.7
	c-0.2-0.2-0.3-0.3-0.6-0.5c-0.3-0.3-0.5-0.5-0.8-0.6c-0.3-0.2-0.3-0.3-0.3-0.5c0-0.2,0.3-0.3,0.8-0.3c1.1,0,1.8,0.6,2.3,1.2
	c0.5,0.8,1.1,1.5,1.8,2c0.5,0.3,0.9,0.5,1.4,0.5c0.8,0,1.4-0.2,2.2-0.3c0.3-0.9,0.8-1.8,1.7-2.3c-5.7-0.6-8.5-2.6-8.5-8
	c0-2,0.6-3.8,1.8-5.2c-0.3-0.8-0.3-1.4-0.3-2.2c0-1.1,0.3-2,0.8-2.8c2,0,3.2,0.6,5.2,2.2c1.4-0.3,2.8-0.5,4.5-0.5
	c1.4,0,2.8,0.2,4,0.5c2-1.4,3.2-2,5.2-2c0.5,0.9,0.8,1.8,0.8,2.8c0,0.8-0.2,1.4-0.3,2.2c1.2,1.4,1.8,3.1,1.8,5.2
	c0,5.4-2.8,7.5-8.5,8c1.2,0.8,1.8,2,1.8,3.4v7.4L14.9,37.4z"/>
<path id="_x3C_Path_x3E_" class="st1" d="M17.4,0.2C8.5,1.2,1.2,8.5,0.2,17.4c-1.7,13.1,9.4,24.1,22.4,22.4
	c8.9-1.1,16.1-8.3,17.2-17.2C41.5,9.5,30.5-1.5,17.4,0.2z M36.6,22.9c-1.1,7.1-6.8,12.6-13.8,13.8c-11.5,1.8-21.4-8-19.5-19.5
	C4.3,10.2,10,4.6,17.1,3.4C28.8,1.4,38.6,11.2,36.6,22.9z"/>
<g id="Soundcloud_3_">
</g>
<g id="Dropbox_2_">
</g>
<g id="Instagram_7_">
</g>
<g id="WordPress_3_">
</g>
<g id="PlayStation">
</g>
<g id="XBox_2_">
</g>
<g id="Windows_2_">
</g>
<g id="iOS_1_">
</g>
<g id="Apple_2_">
</g>
<g id="Android_2_">
</g>
<g id="Deviantart_2_">
</g>
<g id="Yelp_2_">
</g>
<g id="Picassa_6_">
</g>
<g id="LastFM_2_">
</g>
<g id="Amazon_3_">
</g>
<g id="AIM_2_">
</g>
<g id="fffound_1_">
</g>
<g id="Forrst_3_">
</g>
<g id="Yahoo_3_">
</g>
<g id="YouTube_3_">
</g>
<g id="Behance_2_">
</g>
<g id="Tumblr_2_">
</g>
<g id="Vimeo_2_">
</g>
<g id="Skype_3_">
</g>
<g id="Pinterest_2_">
</g>
<g id="LinkedIn_1_">
</g>
<g id="Dribbble_3_">
</g>
<g id="Flickr_3_">
</g>
<g id="Google_Plus_2_">
</g>
<g id="RSS_2_">
</g>
<g id="Twitter_2_">
</g>
<g id="Facebook_2_">
</g>
<g id="Lockup">
</g>
</svg>
